<?xml version="1.0" encoding="iso-8859-1"?>
<!-- Generator: Adobe Illustrator 16.0.0, SVG Export Plug-In . SVG Version: 6.00 Build 0)  -->
<!DOCTYPE svg PUBLIC "-//W3C//DTD SVG 1.1//EN" "http://www.w3.org/Graphics/SVG/1.1/DTD/svg11.dtd">
<svg version="1.1" id="Capa_1" xmlns="http://www.w3.org/2000/svg" xmlns:xlink="http://www.w3.org/1999/xlink" x="0px" y="0px"
	 width="552.224px" height="552.225px" viewBox="0 0 552.224 552.225" style="enable-background:new 0 0 552.224 552.225;"
	 xml:space="preserve">
<g>
	<g>
		<path d="M156.119,111.719l31.384,67.004c-6.024,4.026-8.348,11.924-5.068,18.608l56.448,97.125v83.836l-40.66,148.133
			c-2.984,10.863,3.395,22.088,14.267,25.062c1.807,0.498,3.624,0.727,5.422,0.727c8.951,0,17.165-5.938,19.651-14.994
			l36.806-134.113h6.36l34.109,133.76c2.353,9.209,10.652,15.357,19.746,15.357c1.674,0,3.356-0.201,5.049-0.631
			c10.921-2.783,17.51-13.885,14.727-24.805l-37.771-148.133v-84.867l56.055-96.458c3.013-6.168,1.272-13.388-3.738-17.633
			l33.669-71.9c0.239-0.497,0.335-1.023,0.373-1.549c0.861-0.956,1.578-1.951,2.027-2.974c3.309-7.439,4.38-25.666-2.075-39.072
			C390.133,37.667,357.678,0,276.234,0c-81.435,0-113.899,37.667-126.655,64.212c-6.455,13.417-5.718,31.643-2.821,39.073
			C148,106.498,151.472,109.404,156.119,111.719z M259.279,263.017c-1.033,0-2.027,0.153-3.021,0.306l-7.268-33.841
			c5.68,10.088,16.352,16.983,28.746,16.983c14.955,0,27.435-9.974,31.556-23.581l-8.558,39.875l-0.402,0.688
			c-1.339-0.277-2.725-0.421-4.141-0.421h-36.912V263.017z M389.818,113.88l-29.214,62.386c-5.823-0.459-11.608,2.591-14.344,8.157
			l-30.963,53.272l25.962-120.927h30.801C378.294,116.768,384.453,115.658,389.818,113.88z M332.07,116.768L310.42,217.595
			c0.182-1.416,0.43-2.802,0.43-4.265c0-18.283-14.821-33.105-33.114-33.105c-17.309,0-31.356,13.331-32.829,30.256l-20.12-93.712
			H332.07z M178.936,116.768h36.672l27.014,125.833l-33.813-58.178c-2.448-4.982-7.354-7.899-12.537-8.138l-28.381-60.617
			C171.419,116.366,175.158,116.768,178.936,116.768z"/>
	</g>
</g>
<g>
</g>
<g>
</g>
<g>
</g>
<g>
</g>
<g>
</g>
<g>
</g>
<g>
</g>
<g>
</g>
<g>
</g>
<g>
</g>
<g>
</g>
<g>
</g>
<g>
</g>
<g>
</g>
<g>
</g>
</svg>
